<svg xmlns="http://www.w3.org/2000/svg" viewBox="0 0 330 100"><defs><style>.cls-1{fill:#62cad0;}.cls-2{fill:#fff;}</style></defs><g id="Layer_2" data-name="Layer 2"><g id="Layer_1-2" data-name="Layer 1"><rect class="cls-1" width="330" height="100" rx="13.38"/><path class="cls-2" d="M42.67,52.36C41.1,56.75,39.43,61.11,38,65.53c-.6,1.85-1.44,2.84-3.5,2.54a11.49,11.49,0,0,0-2.93,0c-1.9.24-2.74-.64-3.34-2.38q-3.82-11-7.89-22c-.77-2.06-.44-2.67,1.85-2.65,5.36.05,5.36,0,7.08,5.18q1.68,5.12,3.41,10.23c.06.16.23.29.46.56,1.09-.76,1.22-2,1.6-3,1.07-2.82,2.06-5.67,3.08-8.51,1.63-4.53,3-5.26,7.69-4.45,1.32.23,1.41,1.18,1.73,2,1.75,4.68,3.45,9.39,5.41,14.76,1.77-5.21,3.27-9.69,4.84-14.14.33-.94.23-2.44,1.57-2.52a36.7,36.7,0,0,1,6.71.18c.67.08.27,1.19,0,1.79-2.8,7.74-5.65,15.45-8.4,23.2a2.2,2.2,0,0,1-2.33,1.67c-6,.39-6,.42-8-5.27L43.36,52.43Z"/><path class="cls-2" d="M162.36,49.69c0,5.35-.06,10.7,0,16,0,1.78-.63,2.7-2.35,2.28-2-.49-4.74,1.54-6.19-1.48a3.36,3.36,0,0,0-1,.28c-10.42,4.29-19.65-2.2-19-13.27.57-10,11.34-16,18.85-11.21,1.33.86,1.49.12,1.5-.94,0-2.52.1-5.06,0-7.58-.07-1.72.46-2.38,2.29-2.45,6-.21,6-.28,6,5.77Q162.37,43.43,162.36,49.69Zm-7.81,5c.07-4-2.37-6.67-6-6.75a6.22,6.22,0,0,0-6.71,6.42c-.06,4.07,2.71,7.05,6.53,7C151.85,61.38,154.48,58.54,154.55,54.7Z"/><path class="cls-2" d="M254.52,64.2c-2.58,2.6-4.75,4.19-7.68,4.33-5.21.25-9.39-2.74-10.4-7.93-1.17-6-.4-12-.51-18.05a1.23,1.23,0,0,1,1.42-1.42l.58,0c7.85.11,6.18-1,6.35,5.91.07,2.92,0,5.84,0,8.75.06,4.15,1.07,5.52,4,5.53a6.46,6.46,0,0,0,6.21-5.86c.12-3.79.14-7.59,0-11.37-.09-2.21.49-3.07,2.9-3,5.49.12,5.49,0,5.49,5.33,0,6.32-.09,12.64,0,19,0,2.19-.7,3-2.86,2.75a6.91,6.91,0,0,0-1.76,0C255.88,68.37,254,68.08,254.52,64.2Z"/><path class="cls-2" d="M184.87,57.46c-2.34,0-4.68,0-7,0-.7,0-1.75-.4-2,.66-.18.81.52,1.44,1.13,1.93a7.87,7.87,0,0,0,8.05,1.16c3.31-1.38,4.81.44,6.62,2.35.8.84.72,1.47-.2,2.13-4.56,3.3-9.58,3.64-14.77,2s-8.58-5-9.55-10.4c-1-5.52.21-10.62,5.05-13.92,4.66-3.19,9.87-3.9,15.18-1.22a13.48,13.48,0,0,1,7.06,13.37c-.17,1.51-.83,2-2.26,1.91C189.76,57.4,187.31,57.46,184.87,57.46Zm-3.74-5.76c1.16,0,2.33,0,3.5,0,.55,0,1.26.17,1.57-.44s-.27-1.26-.7-1.74a6,6,0,0,0-8-.54c-.7.57-1.87,1.2-1.43,2.26.38.89,1.56.4,2.39.46S180.25,51.71,181.13,51.7Z"/><path class="cls-2" d="M111.43,44.65c2.79-2.87,5.72-4.47,9.42-3.9a9.85,9.85,0,0,1,8.52,9.09c.59,5.43.23,10.89.3,16.34,0,1.34-.51,1.81-1.89,1.91-6.43.49-6.43.53-6.43-5.9,0-2.82,0-5.65,0-8.47,0-4.2-1-5.7-3.72-5.8a6.42,6.42,0,0,0-6.5,6.17c-.09,3.69-.16,7.4,0,11.09.11,2.36-.78,3-3,2.92-6.18-.22-5.29.83-5.35-5.21-.05-6.33.06-12.65-.05-19,0-2.08.47-3.18,2.77-2.81a14,14,0,0,0,2,0C110.83,41.13,110.83,41.13,111.43,44.65Z"/><path class="cls-2" d="M83.92,68.55c-7,.16-14.52-5.15-14.38-14.09.1-6.94,6.59-13.83,14.5-13.82A14.24,14.24,0,0,1,98.28,55C98.24,62.52,91.85,68.54,83.92,68.55Zm6.35-13.74c0-4.05-2.57-6.88-6.32-6.87s-6.2,2.79-6.2,6.66,2.61,6.74,6.15,6.8A6.42,6.42,0,0,0,90.27,54.81Z"/><path class="cls-2" d="M277.81,68.57a10.71,10.71,0,0,1-10.12-5.2c-.88-1.39-.93-2.46,1.06-2.93,2.26-.54,4.47-2,6.35.89.68,1.07,2.29,1,3.57.73a2,2,0,0,0,1.7-1.77,1.7,1.7,0,0,0-1.26-1.77c-1.8-.75-3.65-1.37-5.42-2.18-4.5-2.06-6.25-4.79-5.77-8.77.43-3.5,3.2-5.9,7.8-6.75s9.59,1.49,11.47,5.26c.61,1.23.59,1.93-1,2.22-2.37.45-4.7,2-6.93-.62a1.87,1.87,0,0,0-3,.54c-.73,1.44.39,2.11,1.56,2.56,1.64.63,3.32,1.16,4.94,1.82,4.79,1.95,6.68,4.77,5.94,8.77-.7,3.84-4.52,6.95-8.85,7.2C279.18,68.61,278.5,68.57,277.81,68.57Z"/><path class="cls-2" d="M295.7,54.76c0-1.45,0-2.91,0-4.37s-.15-2.36-2-2.52c-3.15-.27-1.34-2.82-1.69-4.33-.29-1.25-.18-2.62,1.8-2.44s1.87-1.22,1.85-2.51c-.06-4.33,0-3.79,4.08-3.83a14.59,14.59,0,0,0,1.75,0c2.11-.27,2.86.73,2.6,2.69-.33,2.54.22,4.1,3.35,3.7,3.35-.42,2,2.3,2.22,3.81s.22,3.31-2.23,3c-2.81-.41-3.58.91-3.38,3.48a65.07,65.07,0,0,1,0,6.7c-.05,2.18.77,3.28,3.14,3,1-.13,2.74-.66,2.48,1.29S311.35,67,308,68c-7.2,2.15-11.75-.93-12.27-8.31-.12-1.64,0-3.3,0-5Z"/><path class="cls-2" d="M207.78,45.63c1.92-2.61,4.19-4.45,7.36-4.91,2.19-.32,3.73,0,3.43,2.74a12.75,12.75,0,0,0,0,2.62c.17,1.77-.35,2.53-2.37,2.63-5.47.27-8.77,3.77-8.95,9.17-.08,2.72-.06,5.44,0,8.16,0,1.47-.54,2.07-2.07,2-7.77-.11-6.18.78-6.29-5.7-.1-6.22,0-12.43-.05-18.64,0-2,.56-2.7,2.64-2.68C206.52,41.1,206.52,41,207.78,45.63Z"/><path class="cls-2" d="M231,49.86c0,5.25-.07,10.5,0,15.75,0,1.91-.61,2.54-2.52,2.49-7.06-.18-5.67.8-5.73-5.64-.1-9.43,0-18.87-.08-28.29,0-2.21.67-2.87,2.83-2.81,6.68.18,5.34-.61,5.45,5.38C231,41.11,231,45.49,231,49.86Z"/></g></g></svg>